<?xml version="1.0" encoding="UTF-8" standalone="no"?>
<!-- Created with Inkscape (http://www.inkscape.org/) -->
<svg xmlns:inkscape="http://www.inkscape.org/namespaces/inkscape" xmlns:rdf="http://www.w3.org/1999/02/22-rdf-syntax-ns#" xmlns="http://www.w3.org/2000/svg" xmlns:xlink="http://www.w3.org/1999/xlink" xmlns:ns1="http://sozi.baierouge.fr" xmlns:cc="http://creativecommons.org/ns#" xmlns:sodipodi="http://sodipodi.sourceforge.net/DTD/sodipodi-0.dtd" xmlns:dc="http://purl.org/dc/elements/1.1/" id="svg2" xml:space="preserve" viewBox="0 0 26.46 19.664" version="1.1" inkscape:version="0.91 r13725">
  <defs id="defs6">
    <linearGradient id="linearGradient32" y2="-4.8462" gradientUnits="userSpaceOnUse" x2="13.145" gradientTransform="matrix(.11992 -.70992 -.7268 -.02008 2.7196e-7 15.731)" y1="-4.8462" x1="5.792">
      <stop id="stop34" style="stop-color:#92979c" offset="0"/>
      <stop id="stop36" style="stop-color:#e3e4e6" offset="1"/>
    </linearGradient>
    <linearGradient id="linearGradient50" y2="-12.265" gradientUnits="userSpaceOnUse" x2="16.806" gradientTransform="matrix(.12632 -.7088 -.72904 -.01288 2.7196e-7 15.731)" y1="-12.265" x1="11.676">
      <stop id="stop52" style="stop-color:#92979c" offset="0"/>
      <stop id="stop54" style="stop-color:#e3e4e6" offset="1"/>
    </linearGradient>
  </defs>
  <g id="g10" transform="matrix(1.25,0,0,-1.25,0,19.664)">
    <g id="g12">
      <path id="path14" style="fill-rule:evenodd;fill:#c9cacc" d="m16.559 12.887c0.793-0.144 1.25-0.371 1.371-0.683l-0.254-2.594c-0.071-0.453 0.121-0.984 0.578-1.582 0.766-1.031 1.199-1.633 1.293-1.801 0.531-0.937 0.66-1.582 0.398-1.945-0.457-0.527-1.238-1.176-2.34-1.941-1.082-0.793-2.351-1.418-3.816-1.875l-2.09 0.613c-2.734 0.601-5.23 0.984-7.488 1.152-1.414 0.098-2.543 0.395-3.383 0.899l-0.828 0.683c0.406 0.457 0.793 0.985 1.152 1.586 0.743 1.176 1.055 2.051 0.938 2.625-0.195 0.938-0.016 2.184 0.539 3.746l1.691 1.657 3.059 2.304 1.117-0.687c0.746-0.477 1.836-0.875 3.277-1.188l4.786-0.969z" inkscape:connector-curvature="0"/>
      <path id="path16" style="fill-rule:evenodd;fill:#b5b6b8" d="m17.242 1.798c-0.453-0.313-0.922-0.575-1.402-0.789-0.817-0.168-1.645-0.266-2.485-0.29h-3.058c-1.465 0.36-3.121 0.602-4.969 0.719-1.418 0.098-2.734 0.528-3.961 1.297l-1.367 1.082 2.449 0.465c0.934 0.168 1.606 0.375 2.016 0.613l0.25-0.25c0.242-0.191 0.527-0.324 0.863-0.398 0.531-0.117 1.059-0.262 1.586-0.43l1.188-0.109c0.433 0 0.914-0.11 1.441-0.324l1.223 0.144c0.48 0.074 0.863 0.395 1.152 0.973l0.324 1.836-0.504 1.582 0.789 0.359-0.25 0.723 1.403 1.547 0.363-0.145c0.285-0.215 0.516-0.574 0.68-1.078 0.121-0.41 0.504-1.383 1.152-2.918 0.578-1.465 0.828-2.461 0.758-2.988-0.051-0.285 0-0.598 0.144-0.934 0.145-0.41 0.215-0.637 0.215-0.687z" inkscape:connector-curvature="0"/>
      <path id="path18" style="fill-rule:evenodd;fill:#e3e4e6" d="m18.145 10.837-0.719-0.469-3.492 0.18-3.024 0.718c-0.816 0.243-1.644 0.422-2.484 0.539-0.528 0.075-1.031 0.098-1.512 0.075l-0.539-0.075-2.773-0.14-1.008 0.035 0.035 0.07 0.863 0.938 3.891 3.023 1.113-0.683c0.746-0.481 1.836-0.875 3.277-1.188l4.789-0.973c0.79-0.144 1.247-0.371 1.368-0.683l0.109-0.395c0.07-0.316 0.106-0.636 0.106-0.972z" inkscape:connector-curvature="0"/>
      <path id="path20" style="fill-rule:evenodd;fill:#83888c" d="m21.168 4.212c-1.223-0.625-2.387-1.321-3.492-2.09-1.106-0.789-2.438-1.5-3.996-2.121l-2.375 0.504c-1.731 0.457-3.735 0.765-6.012 0.933-1.754 0.145-3.277 0.723-4.574 1.731 1.801-0.051 3.133-0.157 3.996-0.325 1.176-0.242 2.211-0.3 3.097-0.179l1.946 0.719 2.051-1.082 2.05 0.183c-0.718 0.934-1.019 1.871-0.898 2.805l0.43 2.988 0.398 1.406 0.106 0.864 1.945 0.718 1.441 1.043h0.539l0.071-0.105c0.242-0.625 0.3-1.332 0.183-2.125-0.051-0.481 0.168-1.043 0.649-1.692 0.789-1.082 1.222-1.691 1.293-1.835 0.527-0.938 0.91-1.715 1.152-2.34z" inkscape:connector-curvature="0"/>
      <g id="g22">
        <g id="g24">
          <g id="g30">
            <path id="path38" style="fill-rule:evenodd;fill:url(#linearGradient32)" d="m6.371 8.856c-0.117-0.601-0.394-1.105-0.828-1.512-0.406-0.41-0.852-0.589-1.332-0.542-0.453 0.023-0.805 0.265-1.043 0.722-0.238 0.43-0.301 0.957-0.18 1.582 0.121 0.602 0.395 1.106 0.828 1.512 0.43 0.383 0.875 0.566 1.332 0.539 0.457-0.047 0.805-0.285 1.043-0.719 0.243-0.453 0.301-0.984 0.18-1.582z" inkscape:connector-curvature="0"/>
          </g>
        </g>
      </g>
      <g id="g40">
        <g id="g42">
          <g id="g48">
            <path id="path56" style="fill-rule:evenodd;fill:url(#linearGradient50)" d="m11.953 5.614c-0.098-0.48-0.301-0.875-0.613-1.187-0.313-0.313-0.637-0.454-0.973-0.43-0.312 0.023-0.551 0.215-0.719 0.574-0.144 0.336-0.168 0.746-0.074 1.227 0.121 0.476 0.324 0.863 0.614 1.148 0.312 0.313 0.624 0.457 0.937 0.434 0.309-0.024 0.551-0.203 0.719-0.539s0.203-0.747 0.109-1.227z" inkscape:connector-curvature="0"/>
          </g>
        </g>
      </g>
      <path id="path58" style="fill-rule:evenodd;fill:#e3e4e6" d="m3.816 2.989h3.383l0.578 0.07c0.43 0.047 0.743 0.11 0.934 0.18 0.289 0.121 0.648 0.168 1.082 0.145l0.793-0.25c0.187-0.075 0.523-0.266 1.008-0.579l1.293 0.434-0.071 0.789c0.024 0.098-0.023 0.352-0.144 0.758l0.324 0.754c-0.051 0.097-0.062 0.312-0.035 0.648l0.465 2.09-0.035-1.656-0.071-0.469 0.11-0.613-0.145-0.574 0.395-1.766 0.215-0.469-0.325-0.215c-0.359-0.121-0.789-0.191-1.293-0.214h-0.902l-1.512 0.863h-0.504l-1.297-0.469-0.898 0.145h-1.008c-0.265 0-0.73 0.058-1.402 0.179l-0.938 0.219z" inkscape:connector-curvature="0"/>
      <path id="path60" style="fill-rule:evenodd;fill:#65686b" d="m21.133 4.282 0.035-0.07c-1.223-0.625-2.387-1.321-3.492-2.09-1.106-0.789-2.438-1.5-3.996-2.121l-2.375 0.504c-1.731 0.457-3.735 0.765-6.012 0.933-0.672 0.074-1.273 0.184-1.801 0.324l4.031-0.105 1.153 0.07 1.945-0.504c0.481-0.214 0.957-0.371 1.438-0.468 0.242-0.047 0.421-0.082 0.543-0.11 0.07-0.023 0.25-0.011 0.539 0.039h0.648c0.094 0 0.238 0.071 0.43 0.215 0.312 0.219 0.59 0.528 0.828 0.938l0.723 0.898h1.042c0.094 0 0.204-0.023 0.325-0.07 0.047-0.024 0.133 0 0.25 0.07l0.828 0.504c-0.024 0.051-0.035 0.121-0.035 0.219 0 0.168 0.023 0.32 0.07 0.465l0.434 0.683h0.25c0.191-0.023 0.363-0.082 0.504-0.179l0.324-0.25 1.371 0.105z" inkscape:connector-curvature="0"/>
      <path id="path62" style="fill-rule:evenodd;fill:#8d9296" d="m17.891 12.239 0.039-0.035c0.238-0.625 0.297-1.332 0.179-2.125-0.023-0.336 0.059-0.684 0.25-1.043l-0.109-0.828c-0.742-0.051-1.258-0.145-1.547-0.289-0.191-0.094-0.348-0.145-0.469-0.145h-0.144c-0.43 0.098-0.817 0.145-1.152 0.145h-0.719l1.222 0.648c0.266 0.121 0.579 0.219 0.938 0.289 0.168 0.071 0.469 0.278 0.898 0.61l0.325 0.652c0.027 0.406 0.027 0.695 0 0.863-0.02 0.164 0.074 0.586 0.289 1.258z" inkscape:connector-curvature="0"/>
      <path id="path64" style="fill-rule:evenodd;fill:#8d9296" d="m19.188 5.723c-0.192 0.024-0.336 0-0.434-0.07-0.117-0.098-0.262-0.195-0.43-0.289-0.551-0.359-0.886-0.516-1.008-0.469-0.097 0.024-0.601 0.047-1.511 0.071-0.41 0.027-0.555 0.121-0.434 0.289 0.047 0.097 0.145 0.191 0.289 0.289l1.547 0.215 1.082 0.757c0.406 0.239 0.742 0.621 1.008 1.149 0.336-0.43 0.562-0.766 0.683-1.008l-0.039-0.395c-0.187-0.406-0.441-0.585-0.753-0.539z" inkscape:connector-curvature="0"/>
      <path id="path66" style="fill-rule:evenodd;fill:#73777a" d="m16.414 6.911c-0.43 0-0.691 0.012-0.789 0.035-0.48 0.168-0.758 0.266-0.828 0.289l-0.793 0.18 0.219 0.504 1.871-0.145c0.601-0.023 0.781-0.094 0.539-0.215l0.758-0.218-0.434-0.141-0.543-0.289z" inkscape:connector-curvature="0"/>
      <path id="path68" style="fill-rule:evenodd;fill:#73777a" d="m18.504 5.544c0.266 0.117 0.492 0.179 0.684 0.179 0.312-0.023 0.539 0.047 0.683 0.215l0.18-1.078-0.25-0.324h-0.649l-1.261-0.359c-0.286-0.098-0.465-0.29-0.539-0.579 0-0.214-0.18-0.035-0.54 0.539-0.121 0.168-0.398 0.364-0.828 0.579l-0.613 0.289 1.152 0.359c0.145 0.047 0.446 0.059 0.899 0.035h0.719l0.363 0.145z" inkscape:connector-curvature="0"/>
      <path id="path70" style="fill-rule:evenodd;fill:#73777a" d="m14.219 3.204 0.398 0.504 1.043 0.289 0.18-0.688-0.973-0.14-0.648 0.035z" inkscape:connector-curvature="0"/>
      <path id="path72" style="fill-rule:evenodd;fill:#e3e4e6" d="m7.848 7.524c0.265 0.192 0.578 0.539 0.937 1.043l0.828-0.144c0.575-0.094 1.067-0.204 1.473-0.325l-0.5-0.07-0.902-0.254-0.649-0.789c-0.793-0.219-1.308-0.398-1.547-0.543l-0.648-0.504-0.684-0.105c-0.265-0.024-0.625-0.024-1.082 0l-0.574 0.07 1.043 0.613 0.973 0.215c0.242 0.024 0.683 0.289 1.332 0.793z" inkscape:connector-curvature="0"/>
      <path id="path74" style="fill-rule:evenodd;fill:#e3e4e6" d="m4.465 4.895-1.512-0.613c-0.527-0.191-1.008-0.301-1.441-0.324l-1.512-0.145c0.289 0.242 0.602 0.481 0.938 0.723 0.648 0.476 1.042 0.73 1.187 0.754l0.863 0.179 1.008-0.105c0.434-0.047 0.59-0.203 0.469-0.469z" inkscape:connector-curvature="0"/>
      <path id="path76" style="fill-rule:evenodd;fill:#e3e4e6" d="m7.922 10.942 1.906-0.539c-0.793-0.168-1.273-0.289-1.441-0.359-0.215-0.075-0.43-0.051-0.649 0.07l-0.968 0.828h1.152z" inkscape:connector-curvature="0"/>
      <path id="path78" style="fill-rule:evenodd;fill:#b5b6b8" d="m8.82 6.876c0.094 0.07 0.289 0.371 0.575 0.898l0.433 0.18 1.262 0.144 0.25-0.648c-0.238-0.047-0.492-0.07-0.754-0.07-0.168 0-0.324-0.075-0.469-0.215l-0.469-0.543c-0.406-0.43-0.753-0.695-1.043-0.789l-0.578-0.254-0.215-0.434h-1.406c-0.359 0-0.695 0.074-1.008 0.219l-0.898 0.539 1.656 0.145 1.442 0.613c0.238 0.094 0.644 0.168 1.222 0.215z" inkscape:connector-curvature="0"/>
      <path id="path80" style="fill-rule:evenodd;fill:#d3d4d6" d="m12.418 13.68c-0.117 0-0.348 0.036-0.684 0.106-0.336 0.098-0.609 0.144-0.828 0.144-0.359-0.023-0.621-0.035-0.789-0.035-0.265 0-0.566 0.145-0.902 0.434-0.168 0.14-0.383 0.191-0.649 0.14-0.238-0.093-0.382-0.128-0.429-0.105l-0.723 0.07c-0.164 0.051-0.273 0.051-0.32 0-0.051-0.07-0.098-0.117-0.145-0.144l-0.648-0.36c-0.145-0.07-0.227-0.132-0.254-0.179 0-0.047-0.012-0.121-0.035-0.215-0.285-0.578-0.453-0.891-0.504-0.938-0.36-0.144-0.719-0.3-1.078-0.468-0.098-0.047-0.723-0.227-1.871-0.539l0.07 0.179 0.863 0.938 3.891 3.023 1.113-0.683c0.746-0.481 1.836-0.875 3.277-1.188l0.758-0.144-0.113-0.036z" inkscape:connector-curvature="0"/>
      <path id="path82" style="fill-rule:evenodd;fill:#d3d4d6" d="m14.254 13.137c-0.695-0.238-1.066-0.371-1.113-0.394-0.121-0.07-0.336-0.121-0.649-0.145l-2.629-0.035-0.933 0.25 0.285 0.18c0.121 0.027 0.289 0.133 0.504 0.324 0.074 0 0.527-0.058 1.367-0.18 0.387-0.046 0.758-0.058 1.117-0.035 0.192 0 0.527 0.024 1.008 0.075 0.48 0.046 0.758 0.117 0.828 0.214l0.613-0.109-0.398-0.145z" inkscape:connector-curvature="0"/>
      <path id="path84" style="fill-rule:evenodd;fill:#d3d4d6" d="m13.824 12.384 0.11-0.36h0.574c0.48 0 0.707-0.023 0.683-0.074-0.336-0.168-0.578-0.273-0.718-0.324l-0.578-0.321c-0.094-0.074-0.36-0.039-0.79 0.106l-1.332 0.504c-0.144 0.051-0.168 0.074-0.074 0.074 0.051 0 0.192 0.012 0.434 0.035l1.691 0.36z" inkscape:connector-curvature="0"/>
      <path id="path86" style="fill-rule:evenodd;fill:#d3d4d6" d="m15.191 12.598 0.719-0.105-0.394-0.145c-0.118 0-0.371 0.082-0.754 0.25-0.145 0.047-0.11 0.059 0.105 0.036 0.098 0 0.203-0.012 0.324-0.036z" inkscape:connector-curvature="0"/>
      <path id="path88" style="fill-rule:evenodd;fill:#d3d4d6" d="m7.309 13.177 0.324 0.324 0.324-0.219 0.754 0.109c0.121 0-0.059-0.109-0.539-0.324-0.024-0.023-0.227-0.144-0.613-0.359-0.145-0.121-0.383-0.203-0.719-0.254h-0.613l0.218 0.433 0.864 0.29z" inkscape:connector-curvature="0"/>
      <path id="path90" style="fill-rule:evenodd;fill:#f7f8fa" d="m17.316 12.309-1.332-1.078-0.504-0.179c-0.359-0.122-0.671-0.254-0.937-0.395-0.168-0.098-0.324-0.145-0.469-0.145l-0.14 0.036-0.504 0.035c-0.41 0.023-0.793 0.097-1.153 0.215l-1.187 0.363c-0.168 0-0.375 0.023-0.613 0.07l-1.911 0.504-1.437 0.145 0.933 0.035c0.196 0 0.504-0.035 0.938-0.106l1.223-0.289 0.504-0.035 0.648-0.18 0.504-0.218 2.055-0.18 1.007 0.25 0.899 0.363 0.433 0.25c0.192 0.145 0.539 0.324 1.043 0.539z" inkscape:connector-curvature="0"/>
    </g>
  </g>
<metadata><rdf:RDF><cc:Work><dc:format>image/svg+xml</dc:format><dc:type rdf:resource="http://purl.org/dc/dcmitype/StillImage"/><cc:license rdf:resource="http://creativecommons.org/licenses/publicdomain/"/><dc:publisher><cc:Agent rdf:about="http://openclipart.org/"><dc:title>Openclipart</dc:title></cc:Agent></dc:publisher></cc:Work><cc:License rdf:about="http://creativecommons.org/licenses/publicdomain/"><cc:permits rdf:resource="http://creativecommons.org/ns#Reproduction"/><cc:permits rdf:resource="http://creativecommons.org/ns#Distribution"/><cc:permits rdf:resource="http://creativecommons.org/ns#DerivativeWorks"/></cc:License></rdf:RDF></metadata></svg>
